<?xml version="1.0" standalone="no"?>
<!DOCTYPE svg PUBLIC "-//W3C//DTD SVG 20010904//EN"
 "http://www.w3.org/TR/2001/REC-SVG-20010904/DTD/svg10.dtd">
<svg version="1.0" xmlns="http://www.w3.org/2000/svg"
 width="531.000000pt" height="518.000000pt" viewBox="0 0 531.000000 518.000000"
 preserveAspectRatio="xMidYMid meet">
<g transform="translate(0.000000,518.000000) scale(0.100000,-0.100000)"
fill="#000000" stroke="none">
<path d="M2695 4129 c-4 -6 -5 -12 -2 -15 2 -3 7 2 10 11 7 17 1 20 -8 4z"/>
<path d="M2639 4104 c-8 -9 -21 -37 -29 -63 l-15 -46 -60 -3 c-97 -6 -102 -22
-6 -19 l84 2 16 57 c9 31 19 59 22 63 4 3 14 -23 24 -59 l18 -65 75 -3 74 -3
-60 -39 -60 -40 21 -59 c12 -33 30 -63 42 -69 l20 -11 -20 23 -20 23 20 -6
c20 -7 20 -7 1 8 -11 8 -16 15 -10 15 5 0 4 4 -3 8 -6 4 -14 19 -18 34 -6 24
-3 29 19 38 14 5 26 15 26 21 0 6 7 8 16 5 19 -7 51 20 31 27 -9 4 -9 7 1 15
23 16 -11 32 -80 40 -61 7 -63 8 -64 37 -3 52 -4 56 -13 50 -5 -3 -12 4 -16
15 -8 24 -18 25 -36 4z"/>
<path d="M2084 3947 c1 -84 1 -84 -59 -107 -20 -8 -25 -7 -20 3 4 6 -3 1 -14
-13 -26 -32 -26 -41 0 -47 16 -5 18 -8 7 -15 -8 -5 -3 -6 15 -2 15 3 33 1 41
-5 8 -7 20 -10 27 -9 9 2 14 -6 15 -22 0 -14 4 -47 9 -75 11 -69 25 -29 18 53
l-6 61 -56 12 c-89 18 -90 20 -17 47 l68 26 -6 75 -6 76 22 -30 c13 -16 34
-43 48 -58 l25 -28 59 26 c32 14 60 24 63 22 2 -3 -12 -31 -32 -62 l-37 -57
39 -41 c43 -47 55 -57 66 -57 5 0 -1 13 -12 29 -12 16 -21 34 -21 40 0 6 -6
10 -12 8 -7 -1 -12 4 -10 11 1 8 -2 11 -8 7 -5 -3 -10 1 -10 9 0 9 5 16 11 16
5 0 7 5 4 10 -3 6 -2 10 3 10 4 0 16 15 24 34 13 27 14 37 5 50 -12 15 -27 16
-59 2 -9 -4 -22 -4 -29 0 -7 4 -9 3 -5 -4 3 -6 -3 -14 -15 -17 -18 -6 -30 2
-62 39 -22 26 -45 45 -53 42 -7 -3 -15 0 -17 7 -2 7 -4 -23 -3 -66z"/>
<path d="M3156 3971 c-34 -49 -48 -55 -91 -37 -18 8 -37 11 -41 8 -3 -4 -1 4
6 18 l13 25 -23 -20 c-21 -18 -23 -18 -17 -2 4 11 3 16 -3 12 -6 -3 -10 -12
-10 -20 0 -7 -4 -15 -10 -17 -5 -1 -7 -13 -4 -25 4 -13 11 -20 16 -17 6 4 5
-3 -1 -15 -9 -17 -9 -20 3 -15 31 12 43 -51 13 -71 -12 -8 -30 -27 -39 -43
-15 -25 -16 -32 -4 -41 7 -6 22 -9 32 -5 18 5 18 5 0 -10 -11 -9 -17 -16 -14
-16 11 0 58 27 54 31 -2 2 12 5 31 7 28 2 36 -2 40 -18 3 -11 9 -20 14 -20 5
0 8 -3 7 -7 -4 -13 26 -62 37 -61 21 3 32 26 39 81 6 49 11 58 31 63 13 3 34
3 47 -1 15 -4 19 -3 10 3 -10 7 -6 12 17 22 17 7 31 16 31 20 0 13 -36 40 -54
40 -9 0 -15 4 -12 9 6 10 -24 25 -32 16 -3 -3 1 -5 8 -5 7 0 11 -2 8 -5 -3 -3
-12 -3 -20 0 -12 5 -15 19 -13 63 2 31 1 65 -1 75 -9 29 -40 19 -68 -22z m45
-45 l-8 -68 41 -18 c23 -9 51 -20 64 -24 33 -11 18 -23 -36 -31 -70 -9 -75
-15 -81 -92 l-6 -68 -35 63 c-39 69 -38 69 -132 37 -21 -7 -38 -10 -38 -6 0 3
20 28 44 56 l44 50 -35 53 c-19 30 -32 56 -30 59 3 2 30 -8 62 -22 31 -13 61
-23 65 -20 4 3 25 27 46 55 21 27 39 48 41 47 1 -2 -1 -34 -6 -71z"/>
<path d="M2177 3969 c7 -7 15 -10 18 -7 3 3 -2 9 -12 12 -14 6 -15 5 -6 -5z"/>
<path d="M2460 3951 c0 -5 7 -12 16 -15 8 -3 12 -11 8 -17 -4 -8 -3 -9 4 -5 7
4 12 2 12 -3 0 -6 6 -11 14 -11 24 0 38 -27 31 -60 -5 -24 -11 -30 -23 -26
-16 6 -16 5 0 -7 12 -10 14 -17 6 -31 -24 -42 43 -42 93 1 9 7 19 10 24 6 4
-5 5 -3 1 4 -3 6 -2 14 4 18 5 3 10 1 10 -4 0 -6 7 -11 15 -11 9 0 20 -10 25
-22 5 -13 9 -17 9 -10 1 7 6 10 11 7 6 -4 8 -9 6 -13 -2 -4 9 -8 26 -9 27 -2
25 1 -31 42 -34 25 -64 45 -68 45 -3 0 -30 -18 -60 -40 -29 -23 -53 -37 -53
-33 0 4 9 32 21 62 11 30 18 59 15 66 -5 13 -94 75 -108 75 -4 0 -8 -4 -8 -9z"/>
<path d="M2984 3822 c18 -21 29 -23 27 -5 -1 4 -4 8 -8 8 -5 0 -15 4 -23 9 -9
6 -7 1 4 -12z"/>
<path d="M1940 3801 c0 -6 4 -13 10 -16 6 -3 7 1 4 9 -7 18 -14 21 -14 7z"/>
<path d="M2194 3733 c-59 -95 -81 -159 -33 -94 12 17 26 28 30 25 4 -2 11 1
15 7 4 8 3 9 -4 5 -20 -12 -13 10 9 30 26 23 25 23 44 -1 9 -11 14 -14 10 -7
-5 10 3 11 34 6 30 -5 41 -3 41 6 0 8 -3 11 -6 8 -3 -4 -121 25 -129 32 0 0
-5 -8 -11 -17z"/>
<path d="M2380 3721 c0 -6 4 -13 10 -16 6 -3 7 1 4 9 -7 18 -14 21 -14 7z"/>
<path d="M2370 3686 c0 -2 7 -7 16 -10 8 -3 12 -2 9 4 -6 10 -25 14 -25 6z"/>
<path d="M3025 3681 c-3 -5 -2 -12 3 -15 5 -3 9 1 9 9 0 17 -3 19 -12 6z"/>
<path d="M1568 3601 c-21 -11 -38 -17 -38 -15 0 2 -9 -4 -20 -14 -12 -9 -25
-18 -30 -18 -6 -1 -14 -2 -20 -3 -5 0 -10 -6 -10 -12 0 -8 6 -7 18 2 9 7 -17
-21 -58 -63 -41 -41 -78 -73 -82 -71 -4 2 -5 -3 -2 -11 6 -16 -10 -23 -19 -8
-2 4 -2 1 -1 -5 2 -7 -10 -23 -26 -35 -17 -12 -30 -26 -30 -31 0 -5 -13 -22
-30 -39 -16 -16 -30 -26 -30 -22 0 4 -16 -7 -35 -26 -18 -18 -33 -38 -32 -44
1 -6 -4 -10 -11 -8 -8 1 -11 -1 -8 -6 6 -11 -38 -54 -47 -47 -4 3 -5 2 -3 -1
2 -3 -12 -23 -32 -44 -25 -28 -39 -37 -47 -30 -9 8 -12 4 -10 -14 2 -14 -4
-31 -13 -38 -13 -11 -15 -11 -10 2 6 18 -27 26 -37 9 -3 -5 1 -6 9 -3 14 6 18
0 15 -23 -1 -5 -5 -7 -11 -5 -5 1 -7 -2 -4 -6 5 -9 -22 -40 -36 -41 -5 -1 -8
-4 -9 -8 -1 -14 -32 -43 -45 -43 -7 0 -16 -5 -20 -12 -4 -7 -3 -8 4 -4 8 5 10
2 6 -9 -5 -12 -9 -13 -20 -4 -11 9 -13 9 -9 -2 3 -8 -22 -44 -60 -84 -36 -38
-62 -61 -59 -50 3 12 -1 9 -11 -7 -8 -16 -20 -28 -25 -28 -6 0 -10 -5 -10 -12
0 -6 -8 -20 -17 -30 -14 -16 -14 -18 -1 -13 9 4 18 0 21 -9 5 -13 25 -16 106
-16 85 0 109 4 158 25 32 14 50 19 41 11 -10 -7 -14 -17 -10 -21 4 -5 1 -5 -5
-1 -8 4 -13 1 -13 -9 0 -10 -5 -13 -12 -9 -6 4 -8 3 -4 -4 9 -15 -35 -60 -56
-57 -12 2 -15 -3 -12 -22 3 -17 1 -22 -7 -17 -7 4 -10 3 -6 -2 6 -10 -12 -38
-28 -45 -5 -2 -9 -10 -7 -16 4 -18 -9 -16 -23 4 -9 13 -14 13 -20 3 -6 -9 -4
-11 5 -5 10 6 12 4 6 -10 -4 -10 0 -28 10 -42 15 -24 18 -25 97 -18 45 4 94 9
110 10 15 1 30 5 34 9 3 3 15 6 25 6 13 0 17 4 12 13 -6 9 -4 9 8 -1 13 -11
16 -10 14 5 0 10 7 19 19 20 18 3 19 3 2 -7 -9 -6 -15 -15 -12 -21 4 -5 -1
-12 -9 -15 -9 -3 -13 -10 -10 -15 3 -5 1 -9 -5 -9 -5 0 -12 6 -15 13 -3 6 -3
2 -1 -9 4 -14 0 -24 -11 -28 -10 -4 -14 -12 -10 -22 4 -12 2 -15 -9 -10 -8 3
-14 2 -14 -2 3 -19 -4 -34 -36 -76 -19 -25 -32 -46 -29 -46 3 0 -2 -7 -10 -16
-18 -18 -19 -24 -7 -42 10 -16 68 -25 76 -11 4 5 30 9 58 9 29 0 64 7 80 14
15 8 27 10 27 5 0 -11 16 1 67 49 43 39 51 41 25 5 -11 -16 -30 -51 -43 -80
-13 -28 -27 -49 -33 -46 -5 3 -6 1 -3 -4 4 -6 -11 -38 -33 -72 -30 -46 -40
-71 -38 -96 1 -19 5 -32 9 -29 4 2 22 6 40 8 19 3 57 10 84 16 28 7 59 13 70
15 35 4 59 17 92 51 18 18 35 29 38 24 4 -6 3 -10 0 -10 -20 0 27 -29 56 -34
25 -4 29 -3 14 3 l-20 10 20 1 c11 1 37 4 57 5 38 4 112 37 123 55 5 8 12 7
23 -2 15 -11 15 -11 5 3 -11 13 -9 19 9 35 21 19 21 19 14 0 -8 -22 28 -63 40
-45 3 6 15 9 25 6 10 -3 21 -2 24 3 2 4 20 10 40 13 19 3 50 16 68 29 17 13
33 22 35 20 8 -8 22 0 20 12 -2 8 2 15 7 15 6 1 10 -5 10 -11 0 -25 30 -37 70
-28 28 6 42 5 48 -3 6 -8 7 -6 3 6 -4 13 0 17 18 17 12 0 31 9 41 20 10 11 25
20 33 20 9 0 12 3 9 6 -4 4 2 19 12 33 21 30 33 58 36 86 7 51 25 139 30 143
3 3 5 -4 5 -16 0 -11 4 -22 9 -24 5 -1 12 -21 15 -43 4 -31 1 -46 -15 -65
l-20 -25 6 25 c5 19 4 22 -4 10 -6 -8 -8 -23 -5 -34 4 -12 2 -16 -5 -12 -7 4
-11 -1 -11 -13 0 -12 -4 -21 -10 -21 -5 0 -10 -6 -10 -13 0 -6 -16 -35 -35
-62 -19 -28 -41 -59 -48 -69 -6 -11 -20 -26 -29 -35 -10 -8 -18 -21 -18 -29 0
-7 -3 -11 -7 -9 -5 3 -8 -9 -7 -26 0 -18 -4 -38 -9 -45 -6 -7 -7 -15 -4 -18 7
-7 -29 -44 -42 -44 -6 0 -13 -5 -17 -12 -5 -7 -3 -8 6 -3 9 6 11 4 6 -4 -5 -7
-15 -10 -23 -7 -9 4 -13 1 -11 -6 3 -7 -6 -21 -18 -31 -20 -16 -44 -18 -175
-18 -171 0 -191 -6 -182 -53 4 -18 2 -27 -4 -23 -7 4 -8 -8 -3 -36 5 -23 6
-45 4 -48 -2 -4 3 -13 12 -20 14 -11 20 -8 44 20 16 21 30 30 34 23 3 -6 2
-13 -4 -17 -5 -3 -15 -16 -20 -28 -11 -21 -11 -21 4 -3 15 19 22 12 17 -17 0
-4 5 -6 11 -5 7 2 12 -4 10 -12 -2 -8 -1 -12 3 -8 4 4 18 -4 32 -18 23 -23 43
-31 43 -18 0 3 -20 26 -46 51 l-45 45 38 34 38 33 -41 1 c-33 0 -46 -6 -74
-35 -19 -19 -38 -35 -44 -35 -6 0 -5 5 2 12 7 7 12 39 12 75 l0 63 163 0 163
0 66 68 c53 52 68 75 72 103 3 24 40 91 115 205 73 112 111 178 111 197 0 15
-11 53 -24 85 -12 31 -26 66 -30 76 -3 10 -8 17 -11 15 -2 -2 -13 -60 -24
-128 -23 -136 -44 -184 -95 -218 -34 -22 -136 -56 -144 -48 -2 2 21 106 52
231 30 125 53 231 50 235 -16 26 -31 0 -53 -83 -87 -345 -99 -371 -194 -406
-69 -26 -142 -38 -132 -23 3 7 48 133 100 282 73 215 89 272 78 276 -8 3 -18
2 -22 -3 -4 -5 -43 -108 -86 -229 -91 -257 -114 -306 -154 -334 -16 -12 -60
-29 -98 -37 -37 -9 -78 -20 -90 -24 -29 -12 -33 -4 -18 28 21 41 285 641 285
646 0 3 -8 6 -17 8 -14 3 -34 -31 -94 -162 -131 -284 -140 -303 -185 -398 -57
-118 -88 -142 -211 -166 -48 -10 -99 -20 -113 -23 -21 -5 -23 -4 -14 8 6 8 30
48 52 89 22 41 122 221 220 400 155 279 178 327 166 339 -7 8 -15 13 -17 10
-2 -2 -66 -114 -143 -249 -76 -135 -151 -259 -167 -276 -35 -41 -86 -61 -184
-73 -43 -5 -86 -13 -96 -17 -9 -3 -17 -3 -17 0 0 3 106 164 236 357 212 316
248 379 216 379 -8 0 -53 -63 -200 -280 -111 -164 -131 -177 -285 -189 -56 -4
-104 -7 -106 -5 -1 1 86 114 195 249 110 136 218 271 241 300 35 43 40 55 29
64 -11 9 -34 -13 -114 -106 -55 -65 -120 -142 -144 -172 -62 -78 -91 -90 -223
-91 -60 -1 -114 -1 -120 -1 -5 1 1 8 13 17 14 9 21 22 18 31 -3 8 -2 11 4 8 5
-3 60 47 122 112 62 65 169 177 238 248 325 339 497 509 535 526 33 15 65 19
178 19 76 0 147 -5 157 -10 34 -18 44 -52 50 -170 5 -96 10 -125 32 -172 31
-68 96 -140 156 -175 78 -46 203 -65 270 -42 35 12 37 17 82 183 l33 120 -24
19 c-30 24 -91 18 -124 -13 l-23 -22 -12 37 c-21 62 -4 83 114 144 96 50 110
54 173 54 72 0 156 -28 188 -63 19 -21 48 -158 65 -310 15 -124 26 -146 77
-156 45 -9 162 10 206 32 140 72 217 207 217 384 0 94 9 129 41 148 25 16 263
17 320 2 50 -14 109 -70 539 -520 139 -146 258 -270 264 -276 6 -5 44 -44 83
-85 l73 -74 -108 3 c-59 1 -123 7 -143 12 -39 11 -86 59 -253 263 -49 59 -92
107 -96 107 -4 0 -11 -7 -14 -16 -4 -11 33 -63 117 -162 67 -81 175 -215 238
-298 l116 -151 -81 4 c-107 6 -180 28 -216 67 -16 17 -57 72 -91 121 -73 106
-191 278 -196 284 -1 2 -9 -2 -17 -8 -18 -15 -36 14 247 -404 115 -169 207
-310 204 -313 -8 -9 -188 16 -222 31 -37 15 -85 63 -112 113 -17 32 -165 291
-239 419 -16 28 -29 40 -39 37 -8 -4 -15 -9 -15 -13 0 -4 30 -61 66 -127 36
-65 122 -222 192 -349 69 -126 142 -258 163 -292 21 -35 36 -63 34 -63 -31 0
-217 45 -238 58 -53 30 -82 82 -222 387 -76 165 -140 303 -144 307 -3 4 -13 3
-20 -2 -12 -7 13 -71 130 -336 79 -180 146 -331 148 -336 4 -12 -54 -2 -139
22 -108 31 -117 47 -250 423 -58 164 -77 197 -95 168 -3 -5 26 -96 64 -203 92
-258 123 -350 118 -355 -3 -2 -37 4 -77 13 -73 16 -127 51 -152 98 -6 11 -35
109 -63 216 -49 181 -67 223 -80 187 -3 -7 19 -114 50 -237 31 -122 54 -224
52 -226 -9 -10 -120 32 -150 57 -48 39 -65 82 -91 222 l-23 122 -36 -72 c-21
-40 -37 -85 -37 -100 0 -18 37 -83 111 -194 76 -115 114 -183 124 -220 12 -46
24 -63 77 -111 l63 -57 163 -1 162 0 0 -82 c0 -57 3 -78 10 -68 14 22 12 146
-2 158 -8 6 -77 11 -162 11 -100 1 -155 6 -165 14 -12 10 -13 9 -6 -2 6 -10 4
-12 -4 -7 -7 5 -10 14 -7 21 6 16 -13 35 -29 29 -7 -3 -16 0 -21 7 -5 8 -3 10
7 4 12 -8 12 -6 0 9 -11 13 -16 14 -22 4 -6 -9 -9 -6 -9 10 0 12 -5 21 -12 20
-7 -2 -13 4 -14 12 0 8 -2 18 -4 23 -1 4 -3 10 -4 15 -5 30 -31 92 -39 92 -5
0 -6 7 -3 16 3 8 2 12 -3 9 -5 -3 -12 -1 -15 4 -4 5 -2 12 4 16 5 3 10 11 10
18 0 6 -6 3 -13 -8 -10 -12 -16 -14 -21 -7 -4 7 -2 12 3 12 6 0 -3 14 -21 30
-17 17 -27 30 -22 30 5 0 4 4 -1 8 -6 4 -21 28 -34 54 -13 26 -29 46 -35 45
-6 -1 -10 6 -8 17 2 11 -1 15 -7 11 -10 -6 -16 9 -11 30 1 6 4 24 6 40 3 24 1
27 -7 12 -6 -9 -7 -22 -4 -27 3 -6 1 -10 -4 -10 -6 0 -11 7 -11 15 0 21 22 65
32 65 5 0 6 5 3 10 -3 6 -2 10 4 10 8 0 20 -46 27 -110 3 -30 53 -161 53 -142
1 7 6 10 11 7 6 -4 8 -11 5 -16 -4 -5 10 -16 29 -26 19 -9 32 -21 29 -26 -3
-6 -2 -8 3 -4 5 3 34 -1 63 -9 58 -15 83 -7 80 25 -2 28 1 32 15 19 10 -9 11
-15 2 -20 -7 -5 -5 -8 6 -8 9 0 20 -5 24 -12 5 -7 3 -8 -6 -3 -9 5 -11 4 -6
-4 4 -6 12 -9 17 -5 6 3 18 -1 27 -9 21 -18 129 -50 142 -42 6 3 10 -2 10 -12
1 -17 1 -17 14 0 12 16 14 16 20 1 6 -15 8 -15 31 0 29 19 39 20 29 4 -4 -7
-4 -10 1 -6 4 4 25 -2 46 -12 21 -11 51 -20 66 -20 15 0 40 -6 55 -14 33 -17
69 -2 79 34 6 21 7 22 9 5 1 -11 2 -23 1 -27 0 -4 7 -4 17 -1 13 5 15 4 6 -8
-9 -12 -10 -23 -5 -44 0 -3 13 1 27 8 23 12 33 12 75 -4 27 -11 73 -22 104
-25 30 -4 53 -9 51 -13 -2 -3 8 -6 23 -6 22 0 26 4 26 28 1 15 -3 27 -8 27 -5
0 -3 8 4 17 11 13 11 15 1 9 -9 -5 -15 -1 -19 13 -3 12 -9 21 -13 21 -4 0 -13
15 -21 33 -7 17 -17 35 -21 38 -5 3 -11 22 -13 43 -6 45 7 52 63 36 23 -6 75
-13 116 -16 67 -5 76 -3 85 15 13 24 5 40 -72 144 -33 43 -56 84 -53 92 3 8 0
17 -6 21 -7 5 -8 2 -3 -7 4 -8 -1 -5 -12 6 -11 11 -19 23 -16 28 2 4 -1 7 -8
7 -7 0 -10 2 -7 5 8 8 39 -6 33 -15 -4 -7 9 -13 55 -26 8 -3 60 -9 114 -15 84
-8 102 -7 114 5 13 12 13 18 2 30 -10 13 -10 16 1 16 12 0 12 2 0 9 -8 5 -10
14 -5 22 6 11 5 12 -8 2 -12 -11 -17 -9 -26 12 -6 14 -16 25 -21 25 -6 0 -7 7
-4 17 4 9 2 14 -3 11 -5 -3 -15 0 -22 8 -7 8 -9 14 -5 14 4 0 0 7 -11 15 -10
7 -15 18 -12 24 4 5 1 13 -5 17 -8 5 -10 2 -5 -7 4 -8 1 -5 -8 5 -8 10 -13 23
-9 29 3 5 9 4 13 -3 4 -7 13 -9 19 -6 6 4 11 2 11 -4 0 -6 5 -8 11 -4 8 4 9
-1 5 -17 -6 -20 -5 -21 4 -6 9 14 27 17 110 17 98 0 111 4 116 37 1 6 -4 14
-12 17 -8 3 -14 12 -14 20 0 8 -5 18 -12 22 -7 5 -8 3 -3 -6 5 -9 4 -11 -3 -6
-7 4 -12 14 -12 22 0 8 -5 14 -11 14 -5 0 -7 5 -4 10 4 6 2 9 -4 8 -12 -4
-138 127 -156 163 -8 15 -11 30 -7 34 4 5 1 5 -6 1 -9 -5 -9 -13 -1 -29 7 -15
-1 -10 -23 13 -19 19 -32 40 -30 46 2 7 -2 15 -8 19 -8 5 -8 11 1 23 10 13 9
13 -7 -1 -16 -15 -17 -19 -4 -27 9 -6 10 -10 3 -10 -7 0 -18 10 -24 23 -7 12
-22 33 -35 46 -13 13 -21 27 -18 32 3 5 1 8 -3 7 -5 -2 -26 11 -45 28 -28 25
-34 35 -25 45 10 11 9 11 -4 1 -21 -15 -33 -3 -16 16 10 13 9 14 -1 8 -16 -10
-63 31 -56 48 5 14 -19 38 -33 34 -14 -5 -55 39 -51 55 2 9 -1 15 -7 14 -5 -1
-9 -6 -7 -11 1 -4 -13 9 -33 29 -19 21 -34 45 -33 54 2 8 -4 16 -12 16 -17 0
-70 38 -70 50 0 5 -17 24 -37 44 -21 20 -37 39 -35 44 1 4 -4 6 -10 5 -7 -2
-12 3 -10 10 1 7 -3 12 -10 11 -7 -1 -31 6 -53 16 -32 14 -68 18 -180 19 -129
1 -143 -1 -175 -21 -19 -13 -30 -23 -25 -23 6 0 4 -4 -4 -9 -18 -11 -30 -84
-30 -188 -1 -46 -5 -83 -10 -83 -5 0 -11 -19 -15 -42 -5 -29 -10 -38 -15 -29
-6 10 -11 5 -16 -18 -5 -23 -11 -31 -21 -27 -9 3 -12 1 -9 -5 9 -13 -25 -50
-38 -42 -6 4 -8 0 -4 -11 4 -9 3 -15 -2 -12 -5 3 -14 -1 -21 -9 -7 -8 -21 -15
-32 -15 -10 0 -17 -4 -13 -9 8 -13 -137 -44 -180 -38 -49 7 -65 23 -65 66 0
21 -7 78 -15 127 -7 49 -19 121 -25 161 -7 40 -18 77 -26 84 -7 6 -11 16 -7
22 3 6 1 7 -5 3 -7 -4 -12 -3 -12 2 0 18 -84 55 -152 67 -38 6 -68 7 -68 2 0
-4 -8 -7 -17 -6 -24 3 -73 -11 -100 -28 -12 -8 -28 -16 -35 -17 -30 -6 -47
-19 -41 -30 3 -6 1 -6 -8 2 -7 6 -18 12 -23 12 -6 0 -4 -5 4 -10 13 -8 12 -10
-2 -10 -10 0 -18 -4 -18 -10 0 -5 -5 -10 -11 -10 -5 0 -8 4 -4 9 3 5 1 12 -4
15 -5 4 -8 -2 -6 -11 1 -10 -4 -30 -11 -45 -30 -58 -6 -130 41 -126 13 1 21 6
19 10 -6 9 44 23 71 19 33 -5 45 -20 36 -44 -14 -35 -39 -129 -46 -169 -4 -21
-11 -36 -15 -33 -5 3 -6 -3 -3 -13 3 -14 -5 -20 -37 -28 -64 -18 -147 -7 -215
27 -64 33 -128 87 -119 101 3 5 0 7 -6 6 -7 -2 -25 22 -41 52 -31 59 -37 85
-16 75 6 -4 4 0 -6 8 -14 12 -17 29 -16 103 1 49 -4 102 -10 117 -6 16 -8 33
-5 39 4 6 2 8 -4 4 -6 -3 -14 -1 -17 4 -14 22 -62 31 -189 36 -115 4 -135 2
-168 -15z m-378 -354 c0 -2 -15 -16 -32 -33 l-33 -29 29 33 c28 30 36 37 36
29z m2955 -8 c11 -17 -1 -21 -15 -4 -8 9 -8 15 -2 15 6 0 14 -5 17 -11z m244
-593 c9 -11 9 -16 -1 -22 -7 -4 -10 -4 -6 1 4 4 3 14 -3 22 -6 7 -9 13 -6 13
2 0 10 -6 16 -14z m-2888 -463 c-12 -20 -14 -14 -5 12 4 9 9 14 11 11 3 -2 0
-13 -6 -23z m2648 -30 c2 -2 -2 -9 -9 -18 -15 -19 -33 -9 -27 15 3 13 0 17 -9
13 -10 -4 -12 0 -7 13 4 12 3 15 -5 10 -8 -4 -12 -1 -12 10 0 14 6 12 32 -12
18 -16 35 -30 37 -31z m-291 -68 c-3 -3 -9 2 -12 12 -6 14 -5 15 5 6 7 -7 10
-15 7 -18z m-240 -45 l22 -29 -21 -12 c-15 -8 -19 -8 -15 0 4 6 2 11 -3 11 -6
0 -11 5 -11 11 0 6 7 8 17 5 16 -6 16 -6 0 12 -15 17 -22 32 -14 32 2 0 13
-13 25 -30z m339 -105 c0 -8 -6 -16 -14 -19 -15 -6 -13 15 2 26 6 4 10 8 11 8
0 0 1 -7 1 -15z"/>
<path d="M2146 3593 c-6 -14 -5 -15 5 -6 7 7 10 15 7 18 -3 3 -9 -2 -12 -12z"/>
<path d="M3400 3516 c0 -2 7 -7 16 -10 8 -3 12 -2 9 4 -6 10 -25 14 -25 6z"/>
<path d="M1220 3321 c0 -5 5 -13 10 -16 6 -3 10 -2 10 4 0 5 -4 13 -10 16 -5
3 -10 2 -10 -4z"/>
<path d="M2375 3280 c-3 -6 1 -7 9 -4 18 7 21 14 7 14 -6 0 -13 -4 -16 -10z"/>
<path d="M1133 3253 c4 -3 1 -13 -6 -22 -11 -14 -10 -14 5 -2 16 12 16 31 1
31 -4 0 -3 -3 0 -7z"/>
<path d="M1256 3193 c-6 -14 -5 -15 5 -6 7 7 10 15 7 18 -3 3 -9 -2 -12 -12z"/>
<path d="M2927 3089 c7 -7 15 -10 18 -7 3 3 -2 9 -12 12 -14 6 -15 5 -6 -5z"/>
<path d="M1025 2961 c-3 -5 -2 -12 3 -15 5 -3 9 1 9 9 0 17 -3 19 -12 6z"/>
<path d="M1076 2924 c-23 -23 -20 -30 4 -9 11 10 20 20 20 22 0 7 -9 2 -24
-13z"/>
<path d="M4216 2922 c-3 -5 1 -9 9 -9 8 0 12 4 9 9 -3 4 -7 8 -9 8 -2 0 -6 -4
-9 -8z"/>
<path d="M966 2833 c-6 -14 -5 -15 5 -6 7 7 10 15 7 18 -3 3 -9 -2 -12 -12z"/>
<path d="M4530 2846 c0 -2 8 -10 18 -17 15 -13 16 -12 3 4 -13 16 -21 21 -21
13z"/>
<path d="M4357 2758 c20 -22 24 -23 16 -1 -5 12 -3 14 8 8 8 -4 11 -4 6 0 -4
5 -16 9 -27 10 -19 2 -19 1 -3 -17z"/>
<path d="M1089 2743 c-13 -16 -12 -17 4 -4 9 7 17 15 17 17 0 8 -8 3 -21 -13z"/>
<path d="M1154 2680 c0 -13 4 -16 10 -10 7 7 7 13 0 20 -6 6 -10 3 -10 -10z"/>
<path d="M1697 2689 c7 -7 15 -10 18 -7 3 3 -2 9 -12 12 -14 6 -15 5 -6 -5z"/>
<path d="M4690 2685 c-7 -9 -11 -17 -9 -20 3 -2 10 5 17 15 14 24 10 26 -8 5z"/>
<path d="M3656 2667 c3 -10 9 -15 12 -12 3 3 0 11 -7 18 -10 9 -11 8 -5 -6z"/>
<path d="M4195 2609 c-4 -6 -5 -12 -2 -15 2 -3 7 2 10 11 7 17 1 20 -8 4z"/>
<path d="M4216 2593 c-6 -14 -5 -15 5 -6 7 7 10 15 7 18 -3 3 -9 -2 -12 -12z"/>
<path d="M1230 2561 c0 -7 -5 -9 -12 -5 -7 5 -8 3 -3 -5 5 -9 10 -10 18 -2 6
6 8 14 4 18 -4 3 -7 1 -7 -6z"/>
<path d="M1047 2523 c3 -7 6 -13 8 -13 2 0 5 6 8 13 3 8 -1 14 -8 14 -7 0 -11
-6 -8 -14z"/>
<path d="M2265 2529 c-4 -6 -5 -12 -2 -15 2 -3 7 2 10 11 7 17 1 20 -8 4z"/>
<path d="M3706 2527 c3 -10 9 -15 12 -12 3 3 0 11 -7 18 -10 9 -11 8 -5 -6z"/>
<path d="M3745 2529 c-4 -6 -5 -12 -2 -15 2 -3 7 2 10 11 7 17 1 20 -8 4z"/>
<path d="M2966 2447 c3 -10 9 -15 12 -12 3 3 0 11 -7 18 -10 9 -11 8 -5 -6z"/>
<path d="M1416 2393 c-6 -14 -5 -15 5 -6 7 7 10 15 7 18 -3 3 -9 -2 -12 -12z"/>
<path d="M1331 2267 c-13 -21 -12 -21 5 -5 10 10 16 20 13 22 -3 3 -11 -5 -18
-17z"/>
<path d="M4100 2287 c0 -2 6 -10 14 -16 11 -9 16 -9 22 1 4 7 4 10 -1 6 -4 -4
-14 -3 -22 3 -7 6 -13 9 -13 6z"/>
<path d="M1461 2264 c0 -11 3 -14 6 -6 3 7 2 16 -1 19 -3 4 -6 -2 -5 -13z"/>
<path d="M3176 2207 c3 -10 9 -15 12 -12 3 3 0 11 -7 18 -10 9 -11 8 -5 -6z"/>
<path d="M3423 2125 c0 -8 4 -12 9 -9 5 3 6 10 3 15 -9 13 -12 11 -12 -6z"/>
<path d="M3646 2115 c-9 -26 -7 -32 5 -12 6 10 9 21 6 23 -2 3 -7 -2 -11 -11z"/>
<path d="M3134 2096 c11 -9 24 -16 30 -16 12 0 7 5 -24 19 -24 11 -24 11 -6
-3z"/>
<path d="M3776 2073 c-6 -14 -5 -15 5 -6 7 7 10 15 7 18 -3 3 -9 -2 -12 -12z"/>
<path d="M3960 2026 c0 -2 8 -10 18 -17 15 -13 16 -12 3 4 -13 16 -21 21 -21
13z"/>
<path d="M2456 1962 c-3 -5 -59 -46 -125 -91 -90 -61 -128 -81 -153 -81 -26 0
-44 -11 -95 -62 l-63 -62 35 -36 35 -36 -45 -44 -45 -44 0 35 c0 50 -51 99
-103 99 -30 0 -44 -7 -72 -37 -37 -39 -48 -96 -21 -106 10 -4 12 4 10 31 -2
34 -2 36 12 18 16 -23 19 -14 4 15 -9 15 -7 19 5 19 9 0 13 5 10 10 -3 6 4 10
17 10 19 0 20 2 8 11 -12 9 -12 10 4 5 10 -4 25 -1 32 5 14 11 15 10 18 -12 0
-7 10 -17 21 -23 28 -15 36 -28 31 -48 -6 -25 30 -54 48 -39 10 8 16 9 21 1 3
-5 12 -10 18 -10 7 0 4 5 -6 11 -17 10 -17 12 -2 27 9 10 22 26 29 37 13 18
14 17 10 -12 -2 -18 1 -35 6 -38 6 -4 1 -15 -12 -26 -13 -12 -16 -17 -8 -13
13 7 1 -11 -50 -73 -6 -7 -10 -16 -10 -22 0 -5 -7 -11 -15 -15 -8 -3 -15 -13
-15 -21 0 -9 -5 -13 -10 -10 -6 4 -10 3 -9 -2 1 -4 -2 -17 -6 -27 -6 -13 -4
-21 3 -24 7 -2 10 -7 8 -10 -8 -13 173 -1 200 13 20 10 33 11 47 3 11 -5 17
-6 14 -1 -3 4 1 19 8 32 12 24 13 24 24 3 8 -16 8 -24 -2 -34 -7 -7 -14 -17
-15 -23 -1 -5 -7 -25 -13 -43 -6 -18 -7 -41 -3 -50 4 -9 7 -19 6 -22 -2 -12
125 8 155 24 18 9 36 17 40 19 5 1 7 6 5 11 -2 5 4 6 13 2 10 -3 13 -2 10 5
-8 12 14 41 26 33 5 -3 9 2 9 10 0 9 4 16 10 16 6 0 6 -9 0 -26 -10 -25 -3
-80 8 -69 5 5 34 -48 36 -67 1 -9 16 -23 25 -23 9 0 61 -42 61 -50 0 -3 -6 -3
-12 1 -7 4 -9 3 -5 -1 10 -12 38 -15 31 -4 -8 13 10 11 26 -3 12 -11 12 -10 2
3 -10 13 -8 19 8 34 22 20 28 8 8 -14 -10 -11 -10 -12 -1 -7 7 4 20 22 29 41
9 19 20 35 25 35 5 0 9 7 9 16 0 11 6 15 20 11 16 -4 18 -2 10 13 -7 13 -7 21
0 25 5 3 10 19 10 36 0 16 5 29 11 29 6 0 8 -7 5 -16 -6 -15 -4 -15 11 -3 15
12 16 12 10 -3 -4 -12 -2 -15 9 -11 17 6 19 -8 2 -25 -9 -9 -7 -11 9 -8 11 3
33 -2 49 -11 41 -21 164 -30 165 -12 3 41 -5 85 -18 106 -14 22 -14 23 3 18
14 -4 13 -2 -3 6 -20 11 -32 33 -37 72 -2 11 6 7 25 -15 15 -18 25 -36 22 -40
-2 -4 3 -5 11 -2 8 3 19 -3 25 -15 9 -16 18 -19 44 -15 18 3 27 2 20 -3 -17
-12 143 -6 167 7 20 11 26 26 13 32 -11 4 -67 91 -68 103 -1 6 -6 9 -12 8 -6
-1 -13 12 -17 29 -3 17 -9 28 -13 25 -6 -7 -43 31 -43 45 0 4 -18 27 -40 49
-28 30 -39 48 -36 64 3 16 0 22 -12 21 -10 0 -16 5 -14 12 1 8 -2 11 -7 8 -5
-4 -18 7 -27 24 -10 16 -22 30 -26 30 -4 0 -7 4 -6 9 2 5 -9 23 -24 40 -16 17
-28 34 -28 37 0 3 -10 20 -22 37 l-22 32 25 -20 c13 -11 31 -28 41 -38 9 -10
18 -18 20 -18 14 2 47 -13 43 -19 -6 -10 51 -34 64 -26 5 4 12 2 16 -4 9 -15
28 -12 19 3 -4 6 11 -6 33 -28 22 -22 40 -42 40 -45 2 -21 5 -23 13 -10 8 12
10 11 10 -6 0 -11 -10 -29 -21 -40 -21 -19 -22 -19 -15 3 4 12 3 24 -2 27 -5
3 -8 -19 -7 -50 3 -45 8 -61 31 -85 15 -15 31 -26 35 -23 4 2 10 0 13 -5 8
-12 54 9 61 28 4 10 2 11 -8 3 -10 -8 -13 -6 -13 8 0 10 4 16 9 13 5 -3 7 3 5
12 -2 11 4 19 15 21 11 1 22 6 25 10 4 4 -2 4 -13 0 -16 -6 -17 -5 -8 5 15 16
89 23 98 10 4 -7 -1 -8 -12 -5 -15 5 -15 4 -3 -4 8 -6 17 -9 22 -6 10 6 38
-49 38 -75 0 -11 8 -25 18 -30 12 -8 13 -10 3 -11 -8 0 -11 -3 -8 -6 10 -10
75 43 82 66 4 11 11 18 16 15 15 -10 10 18 -7 45 -9 14 0 7 20 -15 20 -23 36
-33 36 -25 0 27 -54 77 -88 82 -44 6 -49 -6 -12 -33 16 -13 30 -28 30 -34 0
-12 -61 -75 -73 -75 -3 0 -4 14 0 31 5 26 0 36 -33 70 -53 54 -95 54 -148 0
-31 -32 -37 -44 -32 -65 9 -36 -1 -33 -47 15 l-40 40 37 37 36 38 -64 63 c-46
45 -70 62 -87 61 -40 -4 -41 -3 -168 85 -68 47 -125 84 -127 82 -3 -3 44 -69
314 -430 l172 -232 -77 -3 c-147 -6 -195 31 -272 206 -62 141 -65 146 -84 139
-12 -4 -3 -34 45 -154 58 -145 118 -302 118 -311 0 -10 -122 8 -148 22 -69 36
-93 89 -123 264 -12 70 -25 131 -30 136 -23 26 -24 -17 -3 -178 28 -221 24
-245 -68 -333 l-33 -33 -47 46 c-26 25 -54 65 -64 89 -15 41 -15 53 5 212 25
197 25 203 8 203 -9 0 -22 -44 -40 -145 -14 -80 -34 -161 -43 -181 -29 -62
-107 -104 -193 -104 -31 0 -33 2 -26 28 3 15 42 116 86 225 43 109 79 202 79
206 0 18 -31 20 -37 3 -3 -9 -30 -72 -60 -138 -78 -174 -105 -195 -256 -202
l-98 -5 89 119 c270 360 413 556 409 561 -3 2 -8 0 -11 -5z m-104 -109 c-4
-10 -22 -42 -41 -71 -24 -38 -38 -51 -49 -47 -9 3 -13 3 -10 -1 10 -9 -5 -36
-60 -105 -38 -50 -47 -57 -60 -46 -13 10 -14 9 -2 -9 12 -19 11 -24 -3 -38
-21 -22 -24 -20 -24 9 0 16 4 22 11 18 6 -4 5 1 -3 11 -12 14 -12 19 -2 26 10
6 9 9 -6 14 -11 4 -29 16 -39 28 -12 14 -14 18 -4 13 13 -7 13 -6 2 7 -14 18
0 34 19 22 7 -4 10 -1 7 6 -2 8 4 22 15 33 16 16 21 17 28 6 6 -10 8 -7 7 11
-3 27 14 33 46 17 13 -7 16 -6 11 3 -5 9 -1 10 15 5 14 -4 20 -3 17 3 -4 5 9
18 28 28 19 10 35 23 35 27 0 5 6 7 13 4 8 -3 20 -1 28 5 11 7 9 8 -6 4 -16
-5 -16 -3 5 14 31 24 31 24 22 3z m898 -318 c13 -14 21 -25 18 -25 -2 0 -15
11 -28 25 -13 14 -21 25 -18 25 2 0 15 -11 28 -25z m-937 -130 c-3 -9 -8 -14
-10 -11 -3 3 -2 9 2 15 9 16 15 13 8 -4z m-26 -57 c-3 -8 -6 -5 -6 6 -1 11 2
17 5 13 3 -3 4 -12 1 -19z m528 -78 c3 -5 1 -10 -4 -10 -6 0 -11 5 -11 10 0 6
2 10 4 10 3 0 8 -4 11 -10z"/>
<path d="M2803 1925 c0 -7 6 -11 14 -8 7 3 13 6 13 8 0 2 -6 5 -13 8 -8 3 -14
-1 -14 -8z"/>
<path d="M3237 1904 c-3 -5 1 -15 9 -22 16 -14 18 -5 5 17 -5 7 -11 9 -14 5z"/>
<path d="M3027 1889 c7 -7 15 -10 18 -7 3 3 -2 9 -12 12 -14 6 -15 5 -6 -5z"/>
<path d="M2465 1849 c-4 -6 -5 -12 -2 -15 2 -3 7 2 10 11 7 17 1 20 -8 4z"/>
<path d="M2086 1812 c-3 -5 1 -9 9 -9 8 0 12 4 9 9 -3 4 -7 8 -9 8 -2 0 -6 -4
-9 -8z"/>
<path d="M2053 1768 c1 -7 -4 -12 -11 -10 -8 1 -11 -2 -7 -8 5 -8 11 -8 19 -1
7 6 17 7 22 3 4 -4 2 1 -5 11 -16 20 -22 22 -18 5z"/>
<path d="M3336 1668 c3 -5 10 -6 15 -3 13 9 11 12 -6 12 -8 0 -12 -4 -9 -9z"/>
<path d="M1800 1656 c0 -2 7 -7 16 -10 8 -3 12 -2 9 4 -6 10 -25 14 -25 6z"/>
<path d="M2301 1644 c0 -11 3 -14 6 -6 3 7 2 16 -1 19 -3 4 -6 -2 -5 -13z"/>
<path d="M3206 1521 c-4 -5 -2 -12 3 -15 5 -4 12 -2 15 3 4 5 2 12 -3 15 -5 4
-12 2 -15 -3z"/>
<path d="M2255 1449 c-4 -6 -5 -12 -2 -15 2 -3 7 2 10 11 7 17 1 20 -8 4z"/>
<path d="M3144 1448 c-4 -7 -3 -10 1 -5 5 4 17 -1 28 -10 19 -18 19 -17 6 5
-16 25 -25 28 -35 10z"/>
</g>
</svg>
